# This file uses meters as units for non-parametric coordinates.

mtllib Arrow.mtl
g default
v -176.774155 632.446838 -136.261200
v 176.774155 632.446838 -136.261200
v -176.774155 674.572693 -136.261200
v 176.774155 674.572693 -136.261200
v -176.774155 674.572693 -352.000000
v 176.774155 674.572693 -352.000000
v -176.774155 632.446838 -352.000000
v 176.774155 632.446838 -352.000000
v 0.000000 674.572693 352.000000
v 0.000000 674.572693 -352.000000
v 0.000000 632.446838 -352.000000
v 0.000000 632.446838 352.000000
v 0.000000 674.572693 -136.261292
v 0.000000 632.446838 -136.261261
vt 0.375000 0.000000
vt 0.625000 0.000000
vt 0.375000 0.250000
vt 0.625000 0.250000
vt 0.375000 0.500000
vt 0.625000 0.500000
vt 0.375000 0.750000
vt 0.625000 0.750000
vt 0.375000 1.000000
vt 0.625000 1.000000
vt 0.875000 0.000000
vt 0.875000 0.250000
vt 0.125000 0.000000
vt 0.125000 0.250000
vt 0.500000 0.250000
vt 0.500000 0.500000
vt 0.500000 0.750000
vt 0.500000 0.000000
vt 0.500000 1.000000
vt 0.500000 0.352720
vt 0.500000 0.897280
vn 0.000000 0.000000 1.000000
vn -0.940272 0.000000 0.340424
vn -0.940272 0.000000 0.340424
vn 0.000000 0.000000 1.000000
vn 0.000000 1.000000 0.000000
vn 0.000000 1.000000 0.000000
vn 0.000000 1.000000 0.000000
vn 0.000000 0.000000 -1.000000
vn 0.000000 0.000000 -1.000000
vn 0.000000 0.000000 -1.000000
vn 0.000000 0.000000 -1.000000
vn 0.000000 -1.000000 0.000000
vn 0.000000 -1.000000 0.000000
vn 0.000000 -1.000000 0.000000
vn 0.000000 -1.000000 0.000000
vn 1.000000 0.000000 0.000000
vn 1.000000 0.000000 0.000000
vn 1.000000 0.000000 0.000000
vn 1.000000 0.000000 0.000000
vn -1.000000 0.000000 0.000000
vn -1.000000 0.000000 0.000000
vn -1.000000 0.000000 0.000000
vn -1.000000 0.000000 0.000000
vn 0.000000 1.000000 0.000000
vn 0.000000 0.000000 -1.000000
vn 0.000000 0.000000 -1.000000
vn 0.000000 -1.000000 0.000000
vn 0.000000 -1.000000 0.000000
vn 0.940272 0.000000 0.340424
vn 0.940272 0.000000 0.340424
vn 0.000000 1.000000 0.000000
vn 0.000000 1.000000 0.000000
vn 0.000000 1.000000 0.000000
vn 0.000000 -1.000000 0.000000
s 1
g pCube1
usemtl initialShadingGroup
f 9/15/1 3/3/2 1/1/3 12/18/4
s 2
f 13/20/5 3/3/6 9/15/7
s 3
f 5/5/8 10/16/9 11/17/10 7/7/11
s 4
f 7/7/12 11/17/13 14/21/14 1/9/15
s off
f 8/11/16 6/12/17 4/4/18 2/2/19
f 3/3/20 5/14/21 7/13/22 1/1/23
s 2
f 13/20/5 9/15/7 4/4/24
s 3
f 10/16/9 6/6/25 8/8/26 11/17/10
s 4
f 2/10/27 14/21/14 11/17/13 8/8/28
s 1
f 4/4/29 9/15/1 12/18/4 2/2/30
s 2
f 13/20/5 4/4/24 6/6/31 10/16/32
f 3/3/6 13/20/5 10/16/32 5/5/33
s 4
f 12/19/34 14/21/14 2/10/27
f 1/9/15 14/21/14 12/19/34
